<mxfile host="app.diagrams.net" modified="2024-01-05T07:25:22.075Z" agent="Mozilla/5.0 (X11; Linux x86_64) AppleWebKit/537.36 (KHTML, like Gecko) Chrome/107.0.0.0 Safari/537.36" etag="9xOmDKd92Kuqy-owGkU5" version="22.1.16" type="github">
  <diagram name="第 1 页" id="dPAHBRFmOxPwq2pi24Yn">
    <mxGraphModel dx="1434" dy="757" grid="1" gridSize="10" guides="1" tooltips="1" connect="1" arrows="1" fold="1" page="1" pageScale="1" pageWidth="827" pageHeight="1169" math="0" shadow="0">
      <root>
        <mxCell id="0" />
        <mxCell id="1" parent="0" />
        <mxCell id="TdpvIGg-yff7w25jnw_a-1" value="" style="rounded=0;whiteSpace=wrap;html=1;" parent="1" vertex="1">
          <mxGeometry x="70" y="300" width="350" height="190" as="geometry" />
        </mxCell>
        <mxCell id="TdpvIGg-yff7w25jnw_a-2" value="dde-session-shell" style="text;html=1;strokeColor=#b85450;fillColor=#f8cecc;align=center;verticalAlign=middle;whiteSpace=wrap;rounded=0;" parent="1" vertex="1">
          <mxGeometry x="150" y="310" width="190" height="30" as="geometry" />
        </mxCell>
        <mxCell id="TdpvIGg-yff7w25jnw_a-4" value="" style="rounded=0;whiteSpace=wrap;html=1;" parent="1" vertex="1">
          <mxGeometry x="80" y="540" width="330" height="420" as="geometry" />
        </mxCell>
        <mxCell id="TdpvIGg-yff7w25jnw_a-5" value="lightdm" style="text;html=1;strokeColor=#b85450;fillColor=#f8cecc;align=center;verticalAlign=middle;whiteSpace=wrap;rounded=0;" parent="1" vertex="1">
          <mxGeometry x="196" y="570" width="90" height="30" as="geometry" />
        </mxCell>
        <mxCell id="TdpvIGg-yff7w25jnw_a-6" value="" style="rounded=0;whiteSpace=wrap;html=1;" parent="1" vertex="1">
          <mxGeometry x="630" y="565" width="210" height="260" as="geometry" />
        </mxCell>
        <mxCell id="TdpvIGg-yff7w25jnw_a-7" value="systemd-logind" style="text;html=1;strokeColor=#b85450;fillColor=#f8cecc;align=center;verticalAlign=middle;whiteSpace=wrap;rounded=0;" parent="1" vertex="1">
          <mxGeometry x="690" y="575" width="90" height="30" as="geometry" />
        </mxCell>
        <mxCell id="TdpvIGg-yff7w25jnw_a-9" value="" style="endArrow=classic;html=1;rounded=0;exitX=0.5;exitY=1;exitDx=0;exitDy=0;entryX=0.5;entryY=0;entryDx=0;entryDy=0;" parent="1" source="TdpvIGg-yff7w25jnw_a-1" target="TdpvIGg-yff7w25jnw_a-4" edge="1">
          <mxGeometry width="50" height="50" relative="1" as="geometry">
            <mxPoint x="180" y="570" as="sourcePoint" />
            <mxPoint x="185" y="540" as="targetPoint" />
          </mxGeometry>
        </mxCell>
        <mxCell id="TdpvIGg-yff7w25jnw_a-11" value="dbus" style="edgeLabel;html=1;align=center;verticalAlign=middle;resizable=0;points=[];" parent="TdpvIGg-yff7w25jnw_a-9" vertex="1" connectable="0">
          <mxGeometry x="-0.1667" relative="1" as="geometry">
            <mxPoint as="offset" />
          </mxGeometry>
        </mxCell>
        <mxCell id="TdpvIGg-yff7w25jnw_a-15" value="seat.c&lt;br&gt;seat_switch_to_user" style="text;html=1;strokeColor=none;fillColor=none;align=center;verticalAlign=middle;whiteSpace=wrap;rounded=0;" parent="1" vertex="1">
          <mxGeometry x="180" y="620" width="120" height="30" as="geometry" />
        </mxCell>
        <mxCell id="TdpvIGg-yff7w25jnw_a-18" value="seat.c session.c greeter.c greeter-session.c&lt;br&gt;session_start" style="text;html=1;strokeColor=none;fillColor=none;align=center;verticalAlign=middle;whiteSpace=wrap;rounded=0;" parent="1" vertex="1">
          <mxGeometry x="110" y="680" width="260" height="30" as="geometry" />
        </mxCell>
        <mxCell id="TdpvIGg-yff7w25jnw_a-20" value="......" style="text;html=1;strokeColor=none;fillColor=none;align=center;verticalAlign=middle;whiteSpace=wrap;rounded=0;" parent="1" vertex="1">
          <mxGeometry x="100" y="710" width="280" height="30" as="geometry" />
        </mxCell>
        <mxCell id="TdpvIGg-yff7w25jnw_a-21" value="lightdm-deepin-greeter/greeterworker.cpp:&lt;br&gt;lightdm-deepin-greeter/sessionwidget.cpp:&lt;br&gt;dde-lock/lockworker.cpp:&lt;br&gt;switchToUser" style="text;html=1;strokeColor=none;fillColor=none;align=center;verticalAlign=middle;whiteSpace=wrap;rounded=0;" parent="1" vertex="1">
          <mxGeometry x="115" y="390" width="260" height="30" as="geometry" />
        </mxCell>
        <mxCell id="w4eOWGli57LmVXXC6U_B-2" value="basic/terminal-util.c:&lt;br&gt;chvt&lt;br&gt;vt_release&lt;br&gt;" style="text;html=1;strokeColor=none;fillColor=none;align=center;verticalAlign=middle;whiteSpace=wrap;rounded=0;" vertex="1" parent="1">
          <mxGeometry x="680" y="735" width="120" height="50" as="geometry" />
        </mxCell>
        <mxCell id="w4eOWGli57LmVXXC6U_B-8" value="login/login-session.c:&lt;br&gt;session_activate" style="text;html=1;strokeColor=none;fillColor=none;align=center;verticalAlign=middle;whiteSpace=wrap;rounded=0;" vertex="1" parent="1">
          <mxGeometry x="680" y="625" width="120" height="50" as="geometry" />
        </mxCell>
        <mxCell id="w4eOWGli57LmVXXC6U_B-9" value="login/login-seat.c:&lt;br&gt;seat_switch_to" style="text;html=1;strokeColor=none;fillColor=none;align=center;verticalAlign=middle;whiteSpace=wrap;rounded=0;" vertex="1" parent="1">
          <mxGeometry x="675" y="675" width="120" height="50" as="geometry" />
        </mxCell>
        <mxCell id="w4eOWGli57LmVXXC6U_B-10" value="session.c:&lt;br&gt;session_activate" style="text;html=1;strokeColor=none;fillColor=none;align=center;verticalAlign=middle;whiteSpace=wrap;rounded=0;" vertex="1" parent="1">
          <mxGeometry x="180" y="890" width="120" height="50" as="geometry" />
        </mxCell>
        <mxCell id="w4eOWGli57LmVXXC6U_B-11" value="seat.c:&lt;br&gt;seat_set_activate_session&lt;br&gt;or&lt;br&gt;run_session" style="text;html=1;strokeColor=none;fillColor=none;align=center;verticalAlign=middle;whiteSpace=wrap;rounded=0;" vertex="1" parent="1">
          <mxGeometry x="185" y="810" width="120" height="50" as="geometry" />
        </mxCell>
        <mxCell id="w4eOWGli57LmVXXC6U_B-12" value="seat.c:&lt;br&gt;display_server_ready_cb" style="text;html=1;strokeColor=none;fillColor=none;align=center;verticalAlign=middle;whiteSpace=wrap;rounded=0;" vertex="1" parent="1">
          <mxGeometry x="181" y="740" width="120" height="50" as="geometry" />
        </mxCell>
        <mxCell id="w4eOWGli57LmVXXC6U_B-15" value="" style="endArrow=classic;html=1;rounded=0;exitX=1;exitY=0.46;exitDx=0;exitDy=0;entryX=-0.005;entryY=0.638;entryDx=0;entryDy=0;exitPerimeter=0;entryPerimeter=0;" edge="1" parent="1" source="TdpvIGg-yff7w25jnw_a-4" target="TdpvIGg-yff7w25jnw_a-6">
          <mxGeometry width="50" height="50" relative="1" as="geometry">
            <mxPoint x="255" y="500" as="sourcePoint" />
            <mxPoint x="255" y="550" as="targetPoint" />
          </mxGeometry>
        </mxCell>
        <mxCell id="w4eOWGli57LmVXXC6U_B-16" value="dbus" style="edgeLabel;html=1;align=center;verticalAlign=middle;resizable=0;points=[];" vertex="1" connectable="0" parent="w4eOWGli57LmVXXC6U_B-15">
          <mxGeometry x="-0.1667" relative="1" as="geometry">
            <mxPoint as="offset" />
          </mxGeometry>
        </mxCell>
      </root>
    </mxGraphModel>
  </diagram>
</mxfile>
